<?xml version="1.0" encoding="UTF-8" standalone="no"?>
<!-- Created with Inkscape (http://www.inkscape.org/) -->

<svg
   xmlns:dc="http://purl.org/dc/elements/1.1/"
   xmlns:cc="http://creativecommons.org/ns#"
   xmlns:rdf="http://www.w3.org/1999/02/22-rdf-syntax-ns#"
   xmlns:svg="http://www.w3.org/2000/svg"
   xmlns="http://www.w3.org/2000/svg"
   xmlns:sodipodi="http://sodipodi.sourceforge.net/DTD/sodipodi-0.dtd"
   xmlns:inkscape="http://www.inkscape.org/namespaces/inkscape"
   width="210mm"
   height="297mm"
   viewBox="0 0 744.09448819 1052.3622047"
   id="svg3429"
   version="1.1"
   inkscape:version="0.91 r13725"
   sodipodi:docname="catmovieslogo.svg">
  <defs
     id="defs3431" />
  <sodipodi:namedview
     id="base"
     pagecolor="#ffffff"
     bordercolor="#666666"
     borderopacity="1.0"
     inkscape:pageopacity="0.0"
     inkscape:pageshadow="2"
     inkscape:zoom="1.979899"
     inkscape:cx="278.61866"
     inkscape:cy="547.16363"
     inkscape:document-units="px"
     inkscape:current-layer="layer3"
     showgrid="false"
     inkscape:window-width="1600"
     inkscape:window-height="837"
     inkscape:window-x="-8"
     inkscape:window-y="-8"
     inkscape:window-maximized="1" />
  <metadata
     id="metadata3434">
    <rdf:RDF>
      <cc:Work
         rdf:about="">
        <dc:format>image/svg+xml</dc:format>
        <dc:type
           rdf:resource="http://purl.org/dc/dcmitype/StillImage" />
        <dc:title></dc:title>
      </cc:Work>
    </rdf:RDF>
  </metadata>
  <g
     inkscape:groupmode="layer"
     id="layer3"
     inkscape:label="Layer 2">
    <path
       style="fill:#ffdd55;stroke:#8c0000;stroke-opacity:1"
       d="m 307.29037,538.8495 c 0,-0.92626 -30.84026,-130.5471 -31.93433,-134.21919 -0.28968,-0.97227 -0.83699,-1.76792 -1.21624,-1.76811 -0.6716,-3.4e-4 -0.36325,120.36643 0.31008,121.03975 0.18614,0.18614 3.36447,1.02868 7.06296,1.87231 3.69849,0.84363 6.49479,1.7636 6.21401,2.04439 -0.5836,0.5836 -24.61474,-4.31183 -28.59516,-5.82519 -4.43539,-1.68633 -2.16711,-1.87757 4.73177,-0.39895 3.60599,0.77287 6.89727,1.42118 7.31396,1.4407 0.41669,0.0195 0.75761,-29.79685 0.75761,-66.25861 l 0,-66.2941 -3.78807,0.63122 c -9.97884,1.66279 -11.85906,1.80744 -10.42594,0.80207 2.40146,-1.68468 25.21789,-5.7283 26.28142,-4.6577 0.523,0.52648 5.30897,20.73098 10.63548,44.89888 5.32651,24.1679 11.37512,51.60952 13.44135,60.98139 2.06623,9.37187 4.21136,17.09842 4.76694,17.17012 0.55558,0.0717 7.00378,-26.84808 14.32932,-59.82171 7.32554,-32.97364 13.47304,-60.10594 13.6611,-60.294 0.72991,-0.72991 17.70287,-2.47649 22.99579,-2.36635 l 5.58233,0.11617 -4.04061,0.83577 c -2.22233,0.45967 -5.71253,0.86197 -7.75599,0.89399 l -3.71539,0.0582 -0.56045,5.3033 c -0.30825,2.91682 -1.70809,27.57717 -3.11077,54.80078 -1.40267,27.22361 -2.8426,54.90756 -3.19983,61.51987 l -0.6495,12.0224 7.98074,-0.62832 c 15.4007,-1.21252 3.27032,1.35165 -23.33399,4.93244 -2.64628,0.35617 -3.69203,0.20219 -3.03046,-0.44624 0.55558,-0.54455 3.73756,-1.38689 7.07107,-1.87185 4.4982,-0.65442 5.97045,-1.25895 5.71006,-2.34462 -0.19296,-0.80457 -0.6032,-27.07926 -0.91164,-58.3882 -0.30844,-31.30895 -0.89928,-56.31022 -1.31298,-55.55839 -0.4137,0.75183 -6.23565,26.14095 -12.93768,56.42027 -15.43383,69.72903 -16.38315,73.74114 -17.44803,73.74114 -0.48341,0 -0.87893,-0.17264 -0.87893,-0.38364 z"
       id="path3452"
       inkscape:connector-curvature="0" />
    <path
       style="fill:#ffdd55;stroke:#8c0000;stroke-opacity:1"
       d="m 381.02497,486.77153 c -7.98796,-2.42983 -13.11403,-7.72395 -13.12167,-13.55186 -0.009,-6.94913 11.07973,-12.77843 24.30788,-12.77843 12.0898,0 22.5014,7.88186 20.57108,15.57287 -0.86695,3.45418 -7.45765,9.04369 -12.41486,10.52891 -4.32938,1.29711 -15.39951,1.42789 -19.34243,0.22851 z m 15.52674,-1.45914 c 10.47619,-4.37724 11.23389,-19.34578 1.14731,-22.66545 -11.87751,-3.9091 -23.88605,5.86613 -19.68014,16.02009 2.73427,6.60112 11.2934,9.67018 18.53283,6.64536 z"
       id="path3454"
       inkscape:connector-curvature="0" />
    <path
       style="fill:#ffdd55;stroke:#8c0000;stroke-opacity:1"
       d="m 394.47088,440.03102 c -0.38029,-4.1344 -1.56618,-6.5331 -3.58938,-7.26027 l -1.60063,-0.57529 1.76191,-0.85081 c 2.2129,-1.06859 3.08911,-2.87694 3.44539,-7.11073 l 0.28044,-3.33257 0.64335,3.03045 c 0.35385,1.66676 0.65328,3.55136 0.6654,4.188 0.026,1.36781 1.3349,2.87047 2.92623,3.35952 1.36294,0.41885 1.5098,1.29132 0.21735,1.29132 -1.50362,0 -2.98235,2.20254 -3.36974,5.01917 -0.69352,5.04254 -1.06689,5.64877 -1.38032,2.24121 z"
       id="path3456"
       inkscape:connector-curvature="0" />
    <path
       style="fill:#ffdd55;stroke:#8c0000;stroke-opacity:1"
       d="m 433.1174,499.81951 c -3.10737,-9.67655 -7.08063,-23.10093 -11.53495,-38.97289 -2.95563,-10.53175 -5.62776,-19.55517 -5.93806,-20.05203 -0.3103,-0.49687 -0.91421,-0.87852 -1.34202,-0.84811 -2.54538,0.1809 -6.08114,-0.18095 -6.08114,-0.62235 0,-0.90589 2.23798,-1.41755 8.6527,-1.97825 3.43588,-0.30033 7.49711,-0.65642 9.02497,-0.79132 3.0683,-0.2709 4.87229,0.37557 3.53553,1.26698 -0.41669,0.27786 -1.60033,0.73861 -2.63032,1.02387 -1.03,0.28527 -1.98386,0.69851 -2.11971,0.91832 -0.13585,0.2198 1.10197,6.17984 2.7507,13.24452 1.64872,7.06469 3.82126,16.36779 4.82786,20.67357 2.49799,10.68533 3.83909,15.65736 4.22321,15.65736 0.3615,0 0.81166,-1.18789 7.08192,-18.68782 6.64701,-18.55139 10.3645,-29.71336 10.01307,-30.06479 -0.17279,-0.17279 -1.86947,-0.46789 -3.77042,-0.65578 -3.53105,-0.34901 -4.27227,-1.05736 -1.80515,-1.7251 2.37024,-0.64152 10.42386,-1.04316 13.41743,-0.66914 3.73015,0.46605 3.84225,1.54205 0.21002,2.01579 -5.00397,0.65265 -4.49484,0.0389 -8.12899,9.79941 -1.82774,4.90888 -5.57397,15.2892 -8.32496,23.06738 -5.67926,16.05757 -10.68258,29.04188 -11.19088,29.04188 -0.18903,0 -0.58089,-0.73867 -0.87081,-1.6415 z"
       id="path3458"
       inkscape:connector-curvature="0" />
    <path
       style="fill:#ffdd55;stroke:#8c0000;stroke-opacity:1"
       d="m 460.05027,501.05096 c -0.52721,-0.85305 1.24152,-1.53422 4.97768,-1.917 l 3.41579,-0.34996 -0.3026,-4.3436 c -0.16643,-2.38898 -0.54708,-7.98015 -0.84588,-12.42482 -0.75468,-11.22563 -0.2443,-10.15781 -4.84053,-10.1273 -2.50515,0.0166 -3.95275,-0.18126 -4.08247,-0.55809 -0.30071,-0.87349 4.31175,-1.72382 11.15721,-2.05689 l 6.00239,-0.29204 -0.19401,14.34584 -0.19402,14.34584 4.12086,0 c 2.26647,0 4.29011,0.16748 4.49697,0.37218 0.6884,0.68121 -3.00348,1.77521 -7.86021,2.32919 -8.57945,0.9786 -15.48244,1.27327 -15.85118,0.67665 z"
       id="path3460"
       inkscape:connector-curvature="0" />
    <path
       style="fill:#ffdd55;stroke:#8c0000;stroke-opacity:1"
       d="m 468.49114,452.42984 c -0.58622,-3.72297 -1.56881,-5.35759 -3.37531,-5.61512 -1.58044,-0.2253 -1.32464,-1.03798 0.47336,-1.50389 1.89392,-0.49076 2.5581,-1.81371 3.03738,-6.04993 l 0.36084,-3.18941 0.966,3.77915 c 0.5313,2.07852 0.99924,4.17689 1.03987,4.66302 0.0406,0.48614 0.46114,0.88389 0.93448,0.88389 1.22311,0 2.45846,0.53474 2.45846,1.06419 0,0.24807 -0.41934,0.45104 -0.93187,0.45104 -1.53497,0 -2.6986,1.80079 -3.57581,5.53381 l -0.82916,3.52851 -0.55824,-3.54526 z"
       id="path3462"
       inkscape:connector-curvature="0" />
    <path
       style="fill:#ffdd55;stroke:#8c0000;stroke-opacity:1"
       d="m 501.95156,511.73907 c -3.2638,-1.00178 -8.13571,-5.80689 -10.36481,-10.22271 -2.7448,-5.43742 -3.70763,-9.99406 -3.74703,-17.73302 -0.0406,-7.97752 0.73106,-11.65907 3.78725,-18.06846 2.18447,-4.58121 7.35519,-10.6217 10.04657,-11.73651 0.96527,-0.39982 2.96027,-0.54498 5.48303,-0.39894 6.66767,0.38599 9.77364,2.90802 13.7264,11.14578 1.95031,4.06456 3.3243,9.75384 2.55638,10.58521 -0.30738,0.33278 -13.71235,1.81734 -24.25264,2.6859 l -4.24139,0.34951 0.29696,8.6534 c 0.46286,13.48765 2.60832,19.96533 7.43408,22.44533 2.94578,1.51386 5.13358,1.19652 9.9456,-1.44261 4.05357,-2.22316 4.19067,-2.26689 4.19067,-1.33672 0,1.38038 -3.41963,3.95701 -6.54091,4.92846 -3.69595,1.15031 -4.97339,1.17263 -8.32016,0.14538 z m 9.03673,-37.13054 2.93043,-0.58851 -0.29313,-5.0936 c -0.36267,-6.30173 -1.06257,-8.52788 -3.48023,-11.06937 -1.79913,-1.89128 -2.0074,-1.97431 -4.30319,-1.71555 -1.99154,0.22448 -2.69779,0.60191 -4.04711,2.16285 -2.57623,2.98025 -6.34425,13.95563 -5.52455,16.09173 0.25565,0.66622 1.273,0.80097 6.04735,0.80097 3.157,0 7.05869,-0.26484 8.67043,-0.58852 z"
       id="path3464"
       inkscape:connector-curvature="0" />
    <path
       style="fill:#ffdd55;stroke:#8c0000;stroke-opacity:1"
       d="m 543.27294,499.19403 c -5.4637,-1.18853 -9.31139,-3.8898 -10.26202,-7.20447 -0.62228,-2.16974 0.69046,-4.66097 3.06883,-5.82384 1.72984,-0.84578 1.96875,-0.8499 3.9238,-0.0676 3.16678,1.26709 5.46377,4.75633 3.13113,4.75633 -0.52363,0 -1.32437,-0.56821 -1.77941,-1.26269 -0.60219,-0.91906 -1.2709,-1.26059 -2.4572,-1.25496 -2.35353,0.0112 -2.99356,0.61485 -2.99356,2.82355 0,1.56703 0.31032,2.21069 1.57472,3.26626 2.18949,1.82786 4.56853,2.48998 10.18448,2.83449 7.39163,0.45343 12.0804,-1.57927 12.0804,-5.23715 0,-3.34674 -2.99393,-5.55288 -11.86929,-8.74611 -9.09181,-3.27111 -14.99563,-7.35254 -17.1243,-11.83838 -1.1527,-2.42915 -1.03076,-7.22028 0.27243,-10.70336 2.74807,-7.34487 10.05449,-11.26611 21.03497,-11.28913 4.88304,-0.0102 6.5544,-0.59762 9.87279,-3.46967 1.33129,-1.15222 2.55269,-2.09494 2.71423,-2.09494 0.65953,0 -1.25123,21.61846 -2.32136,26.26396 l -0.40722,1.76777 -0.30194,-1.76777 c -0.16607,-0.97227 -0.41382,-3.69968 -0.55056,-6.06091 -0.36717,-6.34057 -1.62684,-8.68422 -5.86544,-10.91284 -2.62599,-1.38073 -11.08879,-1.34799 -13.88293,0.0537 -3.043,1.52654 -4.29981,3.76757 -4.29981,7.66706 0,1.77349 0.30825,3.96228 0.68501,4.86399 1.16705,2.79316 5.39581,5.96739 14.25795,10.70246 10.19859,5.44913 13.84638,8.49041 13.84638,11.54415 0,2.28523 -0.96585,4.25982 -3.40338,6.95788 -4.00141,4.42908 -11.05238,5.98912 -19.1287,4.23226 z"
       id="path3466"
       inkscape:connector-curvature="0" />
    <path
       style="fill:#ffdd55;stroke:#8c0000;stroke-opacity:1"
       d="m 540.86807,425.56762 c -0.16669,-0.62191 -0.30617,-2.17511 -0.30996,-3.45157 -0.008,-2.53204 -0.70878,-3.49654 -3.29082,-4.52616 l -1.5143,-0.60385 1.42125,-0.40641 c 2.6407,-0.75513 2.84833,-1.12013 3.64687,-6.41115 0.45391,-3.00755 1.04657,-2.67139 1.40934,0.79937 0.41875,4.00637 0.64644,4.4425 2.75916,5.28517 l 1.83437,0.73164 -2.05821,1.05003 c -2.19642,1.12053 -2.69933,2.27247 -2.69933,6.18298 0,2.19929 -0.74561,3.03921 -1.19837,1.34995 z"
       id="path3468"
       inkscape:connector-curvature="0" />
    <path
       style="fill:#ffdd55;stroke:#8c0000;stroke-opacity:1"
       d="m 207.45341,505.41975 c -3.62368,-1.99532 -6.44962,-6.47047 -7.32802,-11.60463 -0.74483,-4.35345 -1.16059,-43.63606 -0.65595,-61.97721 0.2243,-8.15228 0.26965,-14.90745 0.10077,-15.01148 -0.16888,-0.10404 -2.30112,0.0374 -4.73832,0.31436 -4.32531,0.49147 -6.31884,0.32976 -6.31884,-0.51259 0,-0.66467 1.29448,-0.99577 6.29631,-1.61046 l 4.68735,-0.57604 0.23821,-4.94676 c 0.27703,-5.75313 0.83813,-6.9249 4.0637,-8.48637 4.1287,-1.99867 4.39483,-1.61494 4.40551,6.35218 0.004,2.87655 0.22956,5.28484 0.51164,5.45918 0.27762,0.17157 3.47382,-0.066 7.10268,-0.52784 3.62886,-0.46188 6.72011,-0.71761 6.86943,-0.56829 0.99858,0.99857 -3.96824,2.49002 -10.5107,3.15619 -1.84661,0.18802 -3.59797,0.4905 -3.89192,0.67218 -0.95898,0.59268 -1.56716,13.86799 -2.17238,47.41851 l -0.5949,32.97797 2.23041,2.27298 c 2.64851,2.69908 3.93476,3.12723 5.90259,1.9648 1.90806,-1.12712 2.66156,-2.37582 3.62032,-5.99962 0.95585,-3.61279 1.83584,-3.56035 1.69847,0.10121 -0.17092,4.55624 -3.39456,10.04173 -6.62475,11.27298 -1.56954,0.59826 -3.65813,0.53795 -4.89161,-0.14125 z"
       id="path3470"
       inkscape:connector-curvature="0" />
    <path
       style="fill:#ffdd55;stroke:#8c0000;stroke-opacity:1"
       d="m 174.64199,426.96226 c -0.53534,-4.05825 -1.38138,-5.60112 -3.27959,-5.98076 -1.94944,-0.38989 -1.97723,-1.16593 -0.0568,-1.58772 2.10529,-0.4624 2.56351,-1.2401 3.1807,-5.39844 l 0.54666,-3.68316 0.88384,3.76121 c 0.92806,3.94944 2.12912,5.54899 4.19222,5.58316 1.02266,0.0169 1.01291,0.0565 -0.18223,0.73972 -0.69448,0.397 -1.67385,0.72987 -2.17638,0.73972 -0.50253,0.01 -0.77894,0.23593 -0.61424,0.50243 0.16471,0.26649 0.0637,0.89152 -0.22434,1.38896 -0.2881,0.49743 -0.82671,2.26813 -1.19693,3.93488 l -0.67312,3.03046 -0.39975,-3.03046 z"
       id="path3472"
       inkscape:connector-curvature="0" />
    <path
       style="fill:#ffdd55;stroke:#8c0000;stroke-opacity:1"
       d="m 178.24316,504.15475 c -0.18519,-0.18519 -0.34019,-0.92387 -0.34445,-1.6415 -0.016,-2.69689 -0.47958,-2.79963 -5.61231,-1.24378 -8.68064,2.63132 -19.04831,1.75763 -24.93707,-2.10147 -2.7812,-1.82261 -3.91257,-3.51589 -4.17181,-6.24383 -0.25664,-2.70062 0.78366,-4.38348 3.94244,-6.37753 4.22183,-2.66513 7.02456,-3.18213 19.34452,-3.56835 l 11.49784,-0.36045 -0.32876,-4.0892 c -0.46035,-5.726 -1.35896,-9.39852 -2.97398,-12.15435 -1.47857,-2.52298 -4.78209,-4.97638 -7.84738,-5.82795 -4.14668,-1.152 -9.59167,-0.0942 -12.64434,2.45637 -1.66462,1.39084 -1.76776,1.65624 -1.76776,4.5488 0,3.64705 0.78128,4.68554 4.53556,6.02872 1.35194,0.48368 2.56302,1.19428 2.69129,1.57909 0.358,1.07402 -4.66833,0.32119 -7.46527,-1.11812 -3.22265,-1.65839 -4.71024,-4.00326 -4.43262,-6.98711 0.29078,-3.12544 1.84614,-5.14972 5.22816,-6.80438 5.16736,-2.52816 15.8813,-2.25081 21.41714,0.55441 4.86424,2.46489 8.8673,8.62634 10.0342,15.44445 0.31293,1.8284 0.56895,8.24919 0.56895,14.26841 l 0,10.94403 3.25319,0 c 3.21505,0 4.72925,0.65283 2.87744,1.24057 -1.4315,0.45434 -9.72826,1.77097 -11.22348,1.78107 -0.71763,0.005 -1.4563,-0.1427 -1.6415,-0.3279 z m -8.8216,-4.26446 c 3.64403,-0.76322 7.33247,-2.38535 7.73196,-3.40042 0.18122,-0.46048 0.45479,-2.8831 0.60793,-5.3836 l 0.27843,-4.54637 -1.70822,-0.60377 c -4.82136,-1.70412 -12.99926,-1.17973 -18.1217,1.16201 -3.41427,1.56085 -4.85498,2.87083 -5.58283,5.07624 -1.05597,3.19962 1.76391,6.70194 6.25827,7.77282 2.44849,0.5834 7.56162,0.54608 10.53616,-0.0769 z"
       id="path3474"
       inkscape:connector-curvature="0" />
    <path
       style="fill:#ffdd55;stroke:#8c0000;stroke-opacity:1"
       d="m 128.3166,554.17201 c -0.46749,-0.51992 -1.67361,-2.87618 -2.68027,-5.23614 -2.52016,-5.90813 -2.58877,-5.96156 -6.1803,-4.81319 -3.76938,1.20524 -9.74972,1.55821 -13.43571,0.793 -10.587493,-2.19795 -20.108992,-11.65466 -25.320017,-25.14772 -4.034834,-10.44751 -5.50438,-17.88081 -6.315258,-31.94401 -0.985954,-17.09956 -0.52877,-33.49227 1.281854,-45.96194 2.805819,-19.32352 10.80323,-37.54729 20.517807,-46.75411 6.634584,-6.28781 12.621244,-8.55597 21.617664,-8.19026 4.64797,0.18895 5.71104,0.4107 8.60296,1.79458 1.95794,0.93694 4.91449,3.05103 7.271,5.19915 2.92408,2.6655 4.07097,3.43834 4.34911,2.9307 0.20777,-0.3792 0.85097,-3.02378 1.42933,-5.87684 1.07945,-5.32491 1.75542,-7.18699 2.60903,-7.18699 0.71294,0 0.6226,1.06677 -0.79525,9.39054 -2.882,16.91935 -5.12959,27.48003 -5.84847,27.48003 -0.96732,0 -0.19537,-8.21602 1.39708,-14.86924 l 0.83894,-3.50503 -1.63599,-1.36578 c -2.14796,-1.79319 -6.56604,-3.4525 -10.20548,-3.8329 -7.07109,-0.73908 -13.92745,2.21626 -20.686,8.91641 -6.890975,6.83141 -10.705932,13.35247 -14.388857,24.59545 -6.472572,19.75901 -8.577655,52.06983 -4.973706,76.34118 2.332944,15.71157 8.08385,27.57717 16.173463,33.37001 3.8278,2.74103 6.97892,3.41106 12.86497,2.73549 7.18339,-0.82447 7.53745,-1.56434 4.51045,-9.42535 -1.52391,-3.95753 -1.87755,-5.88407 -1.08008,-5.88407 1.01228,0 11.35971,24.55815 11.09263,26.32677 -0.15662,1.0371 -0.18363,1.04031 -1.0109,0.12026 z"
       id="path3476"
       inkscape:connector-curvature="0" />
  </g>
  <g
     inkscape:label="Layer 1"
     inkscape:groupmode="layer"
     id="layer1"
     style="display:none">
    <g
       id="g3351"
       transform="translate(-41.89409,110.12835)">
      <path
         style="fill-opacity:1"
         d="m 95.345184,360.56018 0,-113.5 267.999996,0 268,0 0,113.5 0,113.5 -268,0 -267.999996,0 0,-113.5 z m 76.730076,83.25 c -4.5824,-11.83705 -11.19623,-26.75 -11.86352,-26.75 -1.39893,0 -1.01123,2.38516 1.28634,7.91375 2.69439,6.48341 1.96797,7.37268 -6.40568,7.84184 -5.17394,0.28988 -6.87858,-0.0456 -9.92221,-1.95279 -4.29687,-2.69248 -8.87185,-8.20239 -11.75389,-14.1559 -10.29537,-21.26739 -9.78505,-72.70852 0.9987,-100.67173 3.73239,-9.6784 7.64393,-15.59892 14.36279,-21.73958 8.16104,-7.45873 17.73353,-9.29062 26.27002,-5.02729 3.54739,1.77165 4.31561,2.61201 3.88521,4.25 -2.44,9.28602 -3.05206,19.33926 -1.05587,17.34307 0.82344,-0.82344 7.32339,-36.20374 6.80695,-37.05137 -1.23311,-2.02392 -2.26915,-0.12405 -3.40825,6.25 -0.68804,3.85 -1.4189,7 -1.62415,7 -0.20525,0 -1.98743,-1.61424 -3.96039,-3.58721 -5.5049,-5.5049 -11.49256,-7.69723 -19.5213,-7.14755 -12.22083,0.83669 -21.8941,8.80197 -29.38186,24.19396 -8.78307,18.05464 -11.94975,37.14059 -11.157,67.24467 0.56653,21.51359 1.85501,29.53432 6.79461,42.29613 7.95498,20.55228 24.34421,29.914 41.10774,23.48123 1.14618,-0.43983 2.09457,0.92726 3.792,5.46612 1.37259,3.67028 2.84807,6.05265 3.7486,6.05265 0.81678,0 1.2673,-0.5625 1.00116,-1.25 z m 179.7571,-15 c 0.28891,-1.2375 6.84428,-31.0343 14.56749,-66.21511 7.72322,-35.18081 14.24541,-64.16831 14.49377,-64.41666 0.24836,-0.24836 0.45156,21.60431 0.45156,48.56148 0,26.95717 0.29007,53.09957 0.6446,58.09422 l 0.6446,9.08119 -3.3946,0.52554 c -1.86703,0.28905 -5.0821,0.79204 -7.1446,1.11775 -4.33883,0.68521 -5.06439,2.50106 -1,2.5027 5.09152,0.002 33.25,-4.32271 33.25,-5.10676 0,-1.61133 -1.87469,-1.78135 -8.41464,-0.76318 -3.70614,0.57699 -6.85427,0.89602 -6.99583,0.70895 -0.14156,-0.18706 1.35539,-30.04012 3.32655,-66.34012 l 3.58392,-66 7,-0.79382 c 8.48947,-0.96273 10.14259,-1.46359 8.90739,-2.69879 -1.03322,-1.03322 -28.41468,1.52575 -29.45492,2.75276 -0.34499,0.40691 -6.39015,27.06485 -13.4337,59.23985 -7.04355,32.175 -13.14325,59.4 -13.55489,60.5 -0.94757,2.53213 0.62175,9.11029 -15.02783,-62.99252 -7.1616,-32.99589 -13.37271,-60.34414 -13.80246,-60.77389 -0.73608,-0.73608 -26.01486,4.45696 -28.16534,5.78603 -2.234,1.38069 0.25518,2.16496 4.26021,1.34227 2.34935,-0.48259 5.73404,-1.15782 7.52154,-1.5005 l 3.25,-0.62308 0,65.63085 c 0,61.84342 -0.10099,65.63016 -1.75,65.61897 -0.9625,-0.007 -4.21594,-0.66808 -7.22987,-1.47013 -5.48593,-1.45986 -9.00912,-0.62992 -5.37749,1.26675 2.79556,1.46003 31.44753,7.45841 32.17087,6.73508 1.05704,-1.05705 -1.90106,-2.32016 -8.51016,-3.63384 l -6.30335,-1.25291 -0.007,-53.56654 c -0.004,-29.4616 -0.29398,-56.60404 -0.6446,-60.31654 -0.35701,-3.78013 -0.24389,-6.74573 0.25711,-6.7403 0.49203,0.005 7.83463,29.59284 16.31688,65.75 8.48226,36.15717 15.81591,67.2028 16.29701,68.9903 1.0152,3.77195 2.5137,4.23051 3.26789,1 z M 555.474,400.47673 c 2.43948,-1.24588 4.45014,-4.17093 3.51196,-5.1091 -0.22346,-0.22347 -2.09685,0.74094 -4.16309,2.14312 -10.50784,7.13082 -17.47769,-1.02512 -17.47769,-20.45194 l 0,-8.68351 13.56724,-1.1401 c 7.46198,-0.62705 13.98863,-1.40053 14.50367,-1.71884 1.74838,-1.08057 -0.99199,-9.90852 -4.89712,-15.77577 -3.20172,-4.81043 -6.78694,-6.68041 -12.80797,-6.68041 -4.36248,0 -5.10624,0.38672 -9.48902,4.93377 -11.52288,11.95478 -12.1035,37.06137 -1.1378,49.1991 5.21534,5.77275 11.36576,6.87097 18.38982,3.28368 z m -17.12882,-37.23505 c 0,-3.37658 2.98134,-11.88806 5.11353,-14.5987 1.63629,-2.08021 2.8303,-2.62299 5.2521,-2.38753 4.04641,0.3934 6.63063,5.23617 6.63282,12.42973 0.001,4.94045 -0.11098,5.14751 -3.12345,5.75 -1.71875,0.34375 -5.54375,0.625 -8.5,0.625 -4.52951,0 -5.375,-0.28605 -5.375,-1.8185 z m -281.24093,30.5685 c 2.60612,-2.78206 4.24093,-6.95112 4.24093,-10.8151 0,-4.30177 -1.64132,-3.57943 -2.38127,1.048 -0.43237,2.70387 -1.44095,4.50973 -3.14071,5.62346 -2.40606,1.57651 -2.61069,1.53357 -5.24092,-1.09982 l -2.7371,-2.74038 0.25311,-28.63308 c 0.13922,-15.74819 0.58922,-33.8026 1,-40.12091 l 0.74689,-11.48783 7.4248,-1.01217 c 4.43681,-0.60484 7.5956,-1.53437 7.8492,-2.30977 0.32818,-1.00341 -0.78839,-1.15975 -4.9248,-0.68957 -2.94206,0.33442 -6.3617,0.81441 -7.5992,1.06665 -2.14533,0.43729 -2.25,0.16312 -2.25,-5.89376 0,-3.49381 -0.26326,-6.61564 -0.58501,-6.9374 -1.01177,-1.01176 -6.41252,1.37854 -7.4361,3.29112 -0.53839,1.00599 -0.97889,3.82741 -0.97889,6.26982 0,4.17363 -0.18797,4.47833 -3.125,5.06574 -1.71875,0.34375 -4.19375,0.625 -5.5,0.625 -1.39103,0 -2.375,0.59152 -2.375,1.42775 0,1.12891 1.12625,1.31151 5.38086,0.87239 l 5.38085,-0.55535 -0.13085,37.8776 c -0.14057,40.68954 0.044,42.46091 5.04397,48.40301 3.14968,3.74318 7.96188,4.05776 11.08424,0.7246 z m -27.50907,-0.25668 c 5.64244,-0.73158 6.34995,-2.49419 1,-2.49128 l -3.75,0.002 0.31619,-11.21065 c 0.35446,-12.56787 -0.68553,-18.12776 -4.45681,-23.82656 -3.61684,-5.46538 -9.2499,-7.96683 -17.94071,-7.96683 -8.20804,0 -13.25935,2.22027 -15.01935,6.60165 -2.13514,5.31528 1.56327,9.86891 8.99491,11.0749 4.30938,0.69931 5.05213,-1.29293 0.85577,-2.29539 -4.1229,-0.9849 -5.25,-2.27694 -5.25,-6.0183 0,-2.75402 0.61148,-3.76508 3.25,-5.37382 4.4335,-2.70316 10.57668,-2.57978 14.85212,0.29829 4.39593,2.95918 6.20021,6.78897 6.69581,14.21267 l 0.40056,6 -11.95396,0.0739 c -10.55453,0.0652 -12.52704,0.35791 -16.84924,2.5 -5.7957,2.87237 -7.39434,6.05452 -5.27972,10.50948 2.96835,6.25352 17.51059,9.40454 27.82821,6.02982 6.12103,-2.00209 6.05622,-2.00444 6.05622,0.22015 0,2.48984 0.90526,3.20987 3.39846,2.70306 1.15585,-0.23496 4.23904,-0.70434 6.85154,-1.04307 z m -32.61514,-5.5659 c -6.8068,-5.35423 0.99536,-12.95018 13.26436,-12.91377 8.41031,0.025 9.10078,0.51769 9.10078,6.4944 0,5.22493 -0.038,5.28999 -4.02024,6.88337 -5.89891,2.36028 -15.04862,2.12885 -18.3449,-0.464 z M 487.797,361.06018 c 9.48472,-27.17765 11.07943,-31.01422 12.93343,-31.11535 1.16311,-0.0634 2.56475,-0.2199 3.11475,-0.34769 0.55,-0.12778 1.5625,-0.30087 2.25,-0.38465 0.6875,-0.0838 1.25,-0.60231 1.25,-1.15231 0,-1.10764 -11.89061,-1.37188 -16.875,-0.375 -4.42669,0.88534 -3.87786,2.375 0.875,2.375 2.2,0 4.0061,0.3375 4.01356,0.75 0.0251,1.39103 -16.4891,48.25002 -17.00381,48.24811 -0.28036,-10e-4 -2.92759,-10.68346 -5.88273,-23.73869 -2.95514,-13.05524 -5.578,-24.27108 -5.82859,-24.9241 -0.2688,-0.7005 0.67252,-1.32015 2.29586,-1.51131 1.51331,-0.17821 2.95549,-0.94447 3.20486,-1.70281 0.37329,-1.13524 -1.11451,-1.25988 -8.42289,-0.70561 -10.90905,0.82734 -14.37626,1.4698 -14.37626,2.66386 0,0.5063 1.81412,0.92055 4.03138,0.92055 2.34982,0 4.19456,0.5214 4.42256,1.25 0.21515,0.6875 4.12735,14.6375 8.69379,31 4.56644,16.3625 8.79375,29.75 9.39402,29.75 0.60026,0 5.9598,-13.95 11.91007,-31 z m 32.46568,29.13545 c 3.28834,-0.38571 5.59991,-1.18366 5.88163,-2.03034 0.36803,-1.10609 -0.49482,-1.2868 -4.1675,-0.87284 l -4.63163,0.52206 0,-14.97101 0,-14.971 -5.25,0.63553 c -11.02947,1.33515 -12.8479,1.75818 -12.46018,2.89869 0.23603,0.69431 2.0094,1.02346 4.455,0.82688 l 4.06288,-0.32658 0.72047,8.82658 c 0.39625,4.85462 0.77702,10.85158 0.84615,13.32658 l 0.12568,4.5 -4.25,0.3075 c -3.94079,0.28512 -5.07649,1.03268 -3.68413,2.42503 0.56239,0.5624 7.98896,0.11843 18.35163,-1.09708 z m 78.26822,-1.17028 c 4.00407,-1.1121 8.44301,-5.63774 9.44483,-9.62929 1.04594,-4.16736 -2.37638,-7.40196 -14.10978,-13.33588 -12.22057,-6.1803 -14.97532,-8.96699 -14.97532,-15.14902 0,-5.75017 3.69953,-8.85098 10.55997,-8.85098 9.71333,0 13.38208,3.53396 13.38941,12.89747 0.003,3.63139 0.45517,6.82753 1.00517,7.10253 1.04771,0.52386 3.74422,-26.79488 2.79626,-28.32933 -0.28179,-0.45613 -1.86712,0.55637 -3.52296,2.25 -2.80009,2.864 -3.50929,3.08087 -10.14196,3.10129 -12.65029,0.039 -20.43308,5.85929 -21.40846,16.01025 -0.40963,4.26317 -0.0959,5.44542 2.26668,8.54298 3.45655,4.53178 6.81056,6.56691 16.38378,9.9413 8.69875,3.06615 11.12666,4.82965 11.12666,8.08179 0,3.53904 -3.6127,5.40193 -10.47251,5.40017 -7.72236,-0.002 -13.02749,-2.44471 -13.02749,-5.99845 0,-1.83273 0.60174,-2.58545 2.25447,-2.82014 1.35228,-0.19202 2.49559,0.3082 2.85699,1.25 0.65969,1.71913 3.38854,2.17827 3.38854,0.57014 0,-1.79902 -3.95082,-5 -6.17126,-5 -2.90155,0 -5.82874,2.7843 -5.82874,5.5442 0,6.94394 13.09178,11.50222 24.18572,8.42097 z M 446.07105,375.42507 c 19.78725,-9.42199 5.23587,-29.52396 -18.39313,-25.40915 -12.00874,2.09123 -18.33274,6.78144 -18.33274,13.59649 0,7.41862 6.52392,12.69472 17.79059,14.38782 7.53994,1.13306 12.58992,0.44628 18.93528,-2.57516 z m -20.96024,-1.57548 c -9.43252,-5.46763 -6.31225,-19.28303 4.82715,-21.37279 9.86367,-1.85044 16.41043,2.0964 16.40348,9.88914 -0.01,10.95727 -11.45692,17.14904 -21.23063,11.48365 z m 90.23437,-36.86207 2.5,-0.65682 -2.5,-0.99443 c -2.04263,-0.81251 -2.70874,-2.07216 -3.641,-6.88527 -1.06745,-5.51105 -1.14892,-5.63295 -1.26366,-1.89082 -0.18632,6.07636 -1.10216,8.5 -3.21197,8.5 -1.03585,0 -1.88337,0.45 -1.88337,1 0,0.55 0.84752,1 1.88337,1 2.10981,0 3.02565,2.42364 3.21197,8.5 0.11378,3.71081 0.20514,3.56926 1.26366,-1.95792 0.96983,-5.06414 1.51604,-6.05646 3.641,-6.61474 z m -74.89667,-13.66461 c 1.04317,-0.2728 1.89667,-0.84102 1.89667,-1.26273 0,-0.42171 -0.8535,-0.98993 -1.89667,-1.26273 -1.46718,-0.38367 -2.11765,-1.93857 -2.87257,-6.86663 -0.86413,-5.64095 -0.99051,-5.89131 -1.10334,-2.18574 -0.16463,5.40699 -1.67612,9.3151 -3.60267,9.3151 -0.83861,0 -1.52475,0.45 -1.52475,1 0,0.55 0.68614,1 1.52475,1 1.92655,0 3.43804,3.90811 3.60267,9.3151 0.11283,3.70557 0.23921,3.45521 1.10334,-2.18574 0.75492,-4.92806 1.40539,-6.48296 2.87257,-6.86663 z m -219.10333,-12.53882 2.5,-0.99443 -2.5,-0.65682 c -2.12496,-0.55828 -2.67117,-1.5506 -3.641,-6.61474 -1.05852,-5.52718 -1.14988,-5.66873 -1.26366,-1.95792 -0.18632,6.07636 -1.10216,8.5 -3.21197,8.5 -1.03585,0 -1.88337,0.45 -1.88337,1 0,0.55 0.84752,1 1.88337,1 2.10981,0 3.02565,2.42364 3.21197,8.5 0.11474,3.74213 0.19621,3.62023 1.26366,-1.89082 0.93226,-4.81311 1.59837,-6.07276 3.641,-6.88527 z m 363,2.25134 c 0,-3.45353 0.3903,-4.18308 2.75,-5.14033 l 2.75,-1.11557 -2.5,-0.64897 c -1.97507,-0.51271 -2.56058,-1.37563 -2.78854,-4.10968 -0.49799,-5.97293 -1.57832,-6.72358 -2.15952,-1.5005 -0.47125,4.23507 -0.91741,5.05514 -3.05194,5.60967 l -2.5,0.64948 2.75,1.11557 c 2.3597,0.95725 2.75,1.6868 2.75,5.14033 0,2.21361 0.45,4.02475 1,4.02475 0.55,0 1,-1.81114 1,-4.02475 z"
         id="path3359"
         inkscape:connector-curvature="0" />
      <path
         style="fill-opacity:1"
         d="m 95.345184,360.56018 0,-113.5 267.999996,0 268,0 0,113.5 0,113.5 -268,0 -267.999996,0 0,-113.5 z m 71.894606,70.42815 c -4.79061,-11.70667 -6.94401,-15.21208 -8.43127,-13.72482 -0.24773,0.24773 0.66877,3.30623 2.03666,6.79667 1.3679,3.49044 2.37749,6.40223 2.24354,6.47065 -15.06147,7.69287 -28.59773,-3.90202 -34.40498,-29.47065 -2.11597,-9.31633 -2.89948,-39.69148 -1.36258,-52.82462 4.37625,-37.39616 19.68729,-61.17538 39.3898,-61.17538 4.11579,0 11.63451,3.77402 11.63305,5.83921 -6.5e-4,0.91343 -0.64766,5.03579 -1.43779,9.16079 -1.3813,7.21126 -0.82768,10.78025 1.31077,8.45 0.69182,-0.75387 7.12819,-33.92258 7.12819,-36.73388 0,-0.39387 -0.63771,-0.71612 -1.41713,-0.71612 -1.28693,0 -3.58287,7.40085 -3.58287,11.54922 0,2.20572 -1.33517,1.75415 -4.46133,-1.50886 -7.29577,-7.61514 -20.17589,-9.48617 -30.24213,-4.39312 -14.66428,7.41945 -24.98021,27.58123 -29.4065,57.473 -2.03614,13.75057 -1.55871,44.4681 0.8763,56.37976 5.88433,28.78516 17.37637,42.79222 35.23366,42.94455 3.575,0.0305 7.8935,-0.30265 9.59666,-0.74033 3.00138,-0.77129 3.15186,-0.64821 4.89054,4 2.25704,6.03405 3.51035,7.69823 4.81503,6.39355 0.64932,-0.64932 -0.85862,-5.49704 -4.40762,-14.16962 z M 366.0026,365.98589 c 7.81643,-35.43414 14.41394,-65.10071 14.66113,-65.92571 0.2472,-0.825 0.50165,24.43125 0.56545,56.125 l 0.116,57.625 -3.125,0.625 c -1.71875,0.34375 -4.43287,0.625 -6.03138,0.625 -2.60176,0 -4.91229,2.26466 -3.62445,3.5525 0.25643,0.25644 8.22881,-0.66297 17.71639,-2.04313 9.48758,-1.38015 17.43336,-2.50937 17.65729,-2.50937 0.22393,0 0.40715,-0.73696 0.40715,-1.63768 0,-1.39033 -0.79296,-1.54089 -5.25,-0.99684 -2.8875,0.35246 -6.2625,0.9169 -7.5,1.25431 -2.08543,0.5686 -2.24851,0.29409 -2.2296,-3.75316 0.0485,-10.37281 6.81067,-126.78427 7.42222,-127.77379 0.37148,-0.60106 2.33636,-1.09779 4.3664,-1.10385 6.30109,-0.0188 11.19098,-1.16352 11.19098,-2.61983 0,-0.75979 -1.0014,-1.35927 -2.25,-1.34693 -3.66373,0.0362 -27.80847,2.69826 -28.15714,3.10444 -0.17625,0.20533 -6.04287,26.47333 -13.03691,58.37333 -14.98617,68.35224 -13.69278,62.6965 -14.21773,62.17156 -0.23187,-0.23187 -6.47066,-28.22067 -13.86399,-62.19733 -7.39332,-33.97665 -13.65239,-61.98572 -13.90903,-62.24237 -0.55833,-0.55832 -15.73259,2.32782 -23.8152,4.52965 -3.34924,0.91239 -5.75,2.12422 -5.75,2.90244 0,1.66576 1.01657,1.65373 8.47375,-0.1003 3.28557,-0.77281 6.32307,-1.18922 6.75,-0.92536 0.42694,0.26386 0.77625,29.70319 0.77625,65.42073 0,51.29245 -0.26271,64.93849 -1.25,64.92911 -0.6875,-0.007 -3.725,-0.67619 -6.75,-1.48813 -6.90179,-1.85252 -8,-1.85781 -8,-0.0385 0,1.63753 2.11966,2.29493 19.33,5.99512 13.40099,2.88118 14.99869,3.02949 14.43554,1.34003 -0.22063,-0.66187 -3.4421,-1.97084 -7.15883,-2.90883 -3.71674,-0.93799 -6.95236,-1.90009 -7.19027,-2.138 -0.23791,-0.23791 -0.31643,-26.91994 -0.1745,-59.2934 l 0.25806,-58.86088 15.85955,67.45223 c 8.72275,37.09873 16.07649,67.81348 16.34164,68.25502 0.26515,0.44153 0.99114,0.6331 1.61332,0.42571 0.62217,-0.20739 7.52649,-29.36865 15.34291,-64.80279 z m 189.93442,34.60607 c 2.70147,-1.77007 4.07256,-4.20072 2.98373,-5.28954 -0.36932,-0.36932 -1.43741,-0.11587 -2.37353,0.56323 -7.70029,5.58614 -12.77913,4.76531 -16.36646,-2.64511 -1.84935,-3.82025 -2.24894,-6.37774 -2.28812,-14.64447 l -0.0475,-10.01589 13.5,-1.1683 c 7.425,-0.64257 13.89501,-1.20507 14.37781,-1.25 1.33282,-0.12405 -0.15539,-7.63031 -2.50297,-12.62457 -3.83205,-8.15234 -8.88114,-11.2113 -17.35327,-10.51337 -9.40956,0.77515 -16.93812,14.6403 -16.86305,31.05624 0.0613,13.40024 6.03346,25.62393 13.65409,27.94684 4.18687,1.27623 10.13998,0.64186 13.27923,-1.41506 z m -17.59184,-36.42644 c 0,-0.49207 0.88784,-3.76917 1.97298,-7.28244 2.7755,-8.98603 6.66169,-12.61321 10.73823,-10.02254 2.03124,1.29086 4.28879,7.88386 4.28879,12.52506 l 0,4.38967 -6.14669,0.64245 c -8.30538,0.86809 -10.85331,0.80888 -10.85331,-0.2522 z M 259.5923,391.37676 c 2.06605,-3.53757 2.77359,-10.41321 1.13176,-10.998 -0.63023,-0.22448 -1.61418,1.5588 -2.24721,4.07277 -1.42168,5.64604 -4.15881,6.85064 -7.84611,3.45304 l -2.54428,-2.34439 0.60065,-37.5 c 0.33035,-20.625 0.88715,-38.4976 1.23733,-39.71688 0.7202,-2.50768 1.61606,-2.85721 9.67074,-3.77316 4.17897,-0.47522 5.75,-1.06736 5.75,-2.16724 0,-1.2791 -1.16096,-1.40457 -7.5,-0.81055 l -7.5,0.70281 0,-6.61749 c 0,-3.88228 -0.42661,-6.61749 -1.03212,-6.61749 -0.56766,0 -2.59266,0.65204 -4.5,1.44897 -3.41546,1.42708 -3.46788,1.54044 -3.46788,7.5 l 0,6.05103 -3.25,0.0997 c -4.68098,0.14357 -8.03287,1.24893 -8.5572,2.82193 -0.36887,1.10661 0.73391,1.23188 5.79955,0.65876 l 6.25503,-0.70767 -0.6435,9.31365 c -1.21072,17.52321 -1.02977,60.96478 0.27909,67.00197 1.48352,6.84286 4.73957,11.9962 8.12827,12.86458 3.58358,0.91833 8.17387,-1.20568 10.23588,-4.73632 z m -25.96911,1.51864 c 2.78391,-1.46486 0.89108,-3.08952 -2.79406,-2.39819 l -3.28701,0.61665 0.15153,-12.77684 c 0.14085,-11.87657 -0.0337,-13.17191 -2.47766,-18.3838 -3.23425,-6.8973 -7.81208,-10.54658 -15.05477,-12.00112 -13.46358,-2.70387 -25.27518,4.7761 -20.78639,13.16347 1.38262,2.58345 6.15976,4.94461 10.00402,4.94461 4.02362,0 3.47505,-2.11148 -0.83899,-3.22936 -3.4796,-0.90165 -5.26738,-4.80322 -3.51704,-7.67542 1.7292,-2.83751 7.53598,-5.21337 11.16143,-4.56673 8.44966,1.50708 11.88364,5.69834 12.81233,15.63777 l 0.5918,6.33374 -9.00483,-0.34514 c -16.65114,-0.63821 -26.23837,3.19089 -26.23837,10.47949 0,6.77334 7.37678,10.70391 20,10.65662 3.575,-0.0134 8.1508,-0.72105 10.16844,-1.57256 3.98447,-1.68158 4.83156,-1.41045 4.83156,1.54644 0,1.7787 0.49451,1.87513 6.25,1.21873 3.4375,-0.39203 7.0501,-1.13379 8.02801,-1.64836 z m -35.45934,-4.37121 c -9.74165,-5.28957 1.64967,-14.67388 15.68373,-12.92044 l 5.4976,0.68688 0,4.93367 c 0,4.83503 -0.085,4.97223 -4.25,6.86281 -5.03941,2.28747 -13.13845,2.49655 -16.93133,0.43708 z m 278.84804,3.28599 c 0.43161,-0.6875 5.52357,-14.75 11.31546,-31.25 l 10.53071,-30 3.99356,-0.5 c 2.66094,-0.33315 3.99356,-1.00054 3.99356,-2 0,-1.25203 -1.57046,-1.44355 -9.5,-1.15853 -5.225,0.18781 -9.88829,0.7111 -10.36287,1.16287 -1.7621,1.67741 0.64279,3.17904 4.50191,2.81101 2.39021,-0.22794 3.76465,0.0266 3.54325,0.65613 -0.19893,0.56568 -3.92133,11.24271 -8.272,23.72671 -4.35066,12.48401 -8.19422,22.38401 -8.54125,22 -0.6637,-0.73441 -10.86904,-44.8282 -10.86904,-46.96139 0,-0.68024 1.09844,-1.2368 2.44098,-1.2368 2.68872,0 4.4349,-1.84064 2.73996,-2.88817 -0.59141,-0.36552 -5.93657,-0.20271 -11.87812,0.3618 -8.47967,0.80565 -10.80282,1.34894 -10.80282,2.52637 0,1.09304 0.97653,1.44502 3.59939,1.29735 l 3.59939,-0.20265 7.10207,25.20265 c 3.90614,13.86146 7.87269,28.01515 8.81456,31.45265 1.7155,6.26099 2.58554,7.33477 4.0513,5 z m 44.08329,-1.38764 c 3.52046,-0.39751 5.25,-1.049 5.25,-1.97758 0,-0.97939 -1.34917,-1.38478 -4.60862,-1.38478 l -4.60863,0 0.35863,-14.25 0.35862,-14.25 -7.97115,0.33317 c -8.24242,0.34451 -12.05881,1.50032 -10.93863,3.31282 0.39102,0.63267 2.32473,0.79393 4.89625,0.40831 l 4.25,-0.63733 0.66971,10.29152 c 0.36835,5.66033 0.90639,11.49713 1.19566,12.97066 0.49509,2.52194 0.25816,2.7193 -4.03795,3.36354 -3.11006,0.46638 -4.56389,1.16721 -4.56389,2.20006 0,1.55299 3.16804,1.49197 19.75,-0.38039 z m 81.82683,-3.36236 c 3.18048,-2.35747 5.42317,-6.19014 5.42317,-9.26796 0,-4.05333 -3.67106,-7.21388 -13.75061,-11.83842 -11.08651,-5.08653 -15.24939,-8.91053 -15.24939,-14.008 0,-5.11051 0.7777,-6.7193 4.07152,-8.42261 5.51472,-2.85177 15.52595,-0.95218 17.84799,3.38659 0.59427,1.1104 1.08049,5.1985 1.08049,9.08466 0,5.31798 0.33907,7.06574 1.37079,7.06574 1.38795,0 1.62969,-1.62727 3.23096,-21.75 0.73008,-9.1746 -0.24398,-10.48564 -4.15051,-5.58639 -1.92684,2.41649 -2.9581,2.72378 -11.11564,3.31218 -6.83375,0.49292 -9.88047,1.19784 -12.69476,2.93717 -6.98924,4.31958 -9.81707,15.00593 -5.74012,21.69181 2.46538,4.04304 6.63166,6.54017 17.43202,10.4482 6.75651,2.44479 9.08793,3.7762 9.95858,5.68707 1.00795,2.21219 0.8069,2.77872 -1.77385,4.99859 -2.61994,2.25358 -3.54017,2.4531 -9.21381,1.99767 -7.34345,-0.58946 -11.57391,-2.86215 -11.11493,-5.97117 0.44011,-2.9812 2.28928,-3.24179 4.69329,-0.6614 1.84754,1.98311 2.12699,2.03636 2.71024,0.51644 1.54822,-4.03459 -5.94542,-7.3654 -9.83198,-4.37017 -1.98373,1.52879 -2.39217,3.42969 -1.47847,6.88092 1.80761,6.82774 20.79985,9.42475 28.29502,3.86908 z m -160.80575,-9.52466 c 13.98012,-4.15165 18.11335,-16.20014 8.0566,-23.48521 -14.4,-10.4313 -43.65162,-2.63079 -41.28657,11.00987 0.86284,4.97652 2.88872,7.66847 7.56726,10.05529 7.69434,3.92535 17.48483,4.84862 25.66271,2.42005 z m -14.27108,-2.98167 c -5.53323,-1.96228 -7.5,-4.70739 -7.5,-10.46809 0,-3.80079 0.5276,-5.28045 2.63387,-7.38672 5.29912,-5.29912 15.9742,-5.81386 20.50708,-0.98882 3.39889,3.61795 3.32774,11.13899 -0.14095,14.89827 -2.48664,2.69497 -7.77075,5.49157 -10.21788,5.4078 -0.70517,-0.0241 -3.08212,-0.68224 -5.28212,-1.46244 z m 86.25068,-34.75069 c 0.79524,0.26969 1.0294,-0.15252 0.64301,-1.15942 -0.43591,-1.13597 -0.0121,-1.58356 1.49932,-1.58356 1.15885,0 2.10699,-0.45 2.10699,-1 0,-0.55 -1.20344,-1 -2.67431,-1 l -2.67432,0 2.42432,-2.74285 c 2.19763,-2.48638 2.21336,-2.56487 0.16818,-0.83946 -1.24087,1.04686 -2.42083,1.71864 -2.62212,1.49285 -0.2013,-0.2258 -0.81578,-3.11054 -1.36552,-6.41054 -0.90109,-5.40913 -1.0135,-5.60608 -1.14153,-2 -0.19583,5.51589 -1.14157,8.60143 -2.39833,7.82471 -0.65787,-0.40659 -0.81541,-0.0252 -0.41769,1.01125 0.4582,1.19404 0.0992,1.66404 -1.27105,1.66404 -1.05028,0 -2.18771,0.45 -2.52763,1 -0.34937,0.5653 0.47395,1 1.89398,1 2.05096,0 2.70315,0.68827 3.55344,3.75 0.57278,2.0625 1.10474,5.55 1.18213,7.75 0.12063,3.42935 0.29975,3.05976 1.25558,-2.59058 0.7589,-4.48627 1.5142,-6.45516 2.36555,-6.16644 z m -7.25068,1.25702 c 0.99549,-1.1 1.58498,-2 1.30998,-2 -0.275,0 -1.31449,0.9 -2.30998,2 -0.99549,1.1 -1.58498,2 -1.30998,2 0.275,0 1.31449,-0.9 2.30998,-2 z m -66,-14.78357 c 1.97433,1.08577 1.97555,1.07219 0.095,-1.05827 -1.8954,-2.14731 -1.89163,-2.15816 0.75001,-2.15816 1.46025,0 2.65499,-0.45 2.65499,-1 0,-0.55 -1.19474,-1 -2.65499,-1 -2.64027,0 -2.64443,-0.0119 -0.75,-2.14551 1.89046,-2.12915 1.88843,-2.13683 -0.26617,-1.00701 -2.0971,1.09966 -2.19802,0.90851 -2.9588,-5.60449 -0.4332,-3.70865 -0.92469,-5.61799 -1.0922,-4.24299 -0.16751,1.375 -0.55803,4.45855 -0.86782,6.85233 l -0.56326,4.35234 -2.61121,-2.35234 -2.61121,-2.35233 2.28766,3 2.28765,3 -2.09982,0.31955 c -1.15491,0.17575 -2.09983,0.70696 -2.09983,1.18045 0,0.47349 0.94492,1.0047 2.09983,1.18045 l 2.09982,0.31955 -2.28765,3 -2.28766,3 2.55325,-2.29789 2.55326,-2.29788 0.63457,3.17288 c 0.34902,1.74509 0.68791,4.80414 0.75309,6.79789 0.0883,2.70202 0.4066,1.92119 1.25,-3.06673 1.05881,-6.26191 1.25995,-6.62108 3.13149,-5.59184 z m -222.61831,-9.96643 c 0.13538,-3.7189 0.64351,-3.93525 3.53957,-1.50715 1.50868,1.26489 1.41391,0.99066 -0.34557,-1 l -2.42432,-2.74285 2.67432,0 c 1.47087,0 2.67431,-0.45 2.67431,-1 0,-0.55 -0.94814,-1 -2.10699,-1 -1.51145,0 -1.93523,-0.44759 -1.49932,-1.58356 0.38639,-1.0069 0.15223,-1.42911 -0.64301,-1.15942 -0.85135,0.28872 -1.60665,-1.68017 -2.36555,-6.16644 -0.95583,-5.65034 -1.13495,-6.01993 -1.25558,-2.59058 -0.0774,2.2 -0.60935,5.6875 -1.18213,7.75 -0.85029,3.06173 -1.50248,3.75 -3.55344,3.75 -1.42003,0 -2.24335,0.4347 -1.89398,1 0.33992,0.55 1.47032,1 2.51201,1 2.08708,0 3.88176,4.81416 4.10073,11 l 0.12389,3.5 0.76337,-3 c 0.41985,-1.65 0.81661,-4.4625 0.88169,-6.25 z m 366.11831,-1.80902 c 0,-2.44254 0.3085,-4.44098 0.68555,-4.44098 0.37705,0 1.83955,1.0125 3.25,2.25 l 2.56445,2.25 -2.42061,-2.74606 c -1.33134,-1.51033 -2.23134,-2.8844 -2,-3.05349 0.23134,-0.16908 1.54561,-0.8154 2.92061,-1.43626 l 2.5,-1.12883 -2.75,-0.0677 c -3.33585,-0.0821 -3.41118,-0.6852 -0.5,-4.00323 l 2.25,-2.56445 -2.56445,2.25 c -1.41045,1.2375 -2.87295,2.25 -3.25,2.25 -0.37705,0 -0.68555,-1.99844 -0.68555,-4.44098 0,-2.44254 -0.45,-4.7191 -1,-5.05902 -0.60869,-0.37619 -1,1.10073 -1,3.77432 0,5.6138 -0.7457,6.27574 -3.92581,3.48483 l -2.57419,-2.25915 2.25,2.56445 c 2.91118,3.31803 2.83585,3.92113 -0.5,4.00323 l -2.75,0.0677 2.5,1.12883 c 1.375,0.62086 2.68474,1.26264 2.91054,1.42619 0.22579,0.16355 -0.44921,1.31262 -1.5,2.55349 -1.90989,2.25536 -1.90983,2.25553 0.17061,0.50395 2.68922,-2.26413 3.41885,-1.4152 3.41885,3.97786 0,2.67359 0.39131,4.15051 1,3.77432 0.55,-0.33992 1,-2.61648 1,-5.05902 z m -370.87244,-0.19098 c 1.24387,-1.58606 1.2085,-1.62143 -0.37756,-0.37755 -0.9625,0.75484 -1.75,1.54234 -1.75,1.75 0,0.82303 0.82119,0.2933 2.12756,-1.37245 z m 0.87244,-7.59501 c 0,-0.18976 -1.0125,-1.20226 -2.25,-2.25 l -2.25,-1.90499 1.90499,2.25 c 1.79022,2.11444 2.59501,2.70524 2.59501,1.90499 z"
         id="path3357"
         inkscape:connector-curvature="0" />
      <path
         style="fill-opacity:1"
         d="m 95.345184,360.56018 0,-113.5 267.999996,0 268,0 0,113.5 0,113.5 -268,0 -267.999996,0 0,-113.5 z m 76.999996,83.64308 c 0,-3.22771 -10.74066,-27.64308 -12.16058,-27.64308 -1.76606,0 -1.5117,2.91318 0.76809,8.79692 2.30158,5.93999 1.52645,6.66862 -7.10751,6.68118 -9.14126,0.0133 -14.87284,-4.81819 -20.40539,-17.2009 -5.47936,-12.26364 -7.67247,-28.87238 -6.77093,-51.2772 1.30285,-32.37823 8.34481,-55.07186 20.9324,-67.45745 5.07174,-4.99034 7.99194,-6.64145 14.21137,-8.03525 5.3103,-1.19007 10.96186,-0.0997 14.55206,2.80741 2.19971,1.78122 2.20217,1.82085 0.59467,9.59391 -2.03355,9.83317 -2.01889,10.59138 0.2047,10.59138 1.56852,0 2.27324,-2.47294 5.11989,-17.96638 1.81556,-9.88151 3.01674,-18.70719 2.66929,-19.61262 -1.08726,-2.83337 -3.36749,0.19442 -4.08717,5.42713 -0.90954,6.61317 -1.8394,7.8409 -3.74076,4.93906 -2.00122,-3.05426 -10.16226,-7.39456 -15.55909,-8.27483 -9.87778,-1.61116 -22.73836,4.93585 -29.98281,15.26353 -10.54177,15.02832 -15.89984,35.49792 -16.94202,64.72411 -1.4458,40.54522 8.15527,69.13501 26.20379,78.0289 4.23731,2.08804 16.50557,2.76103 21.5,1.17941 2.34204,-0.74167 2.64733,-0.40994 4.83165,5.25 2.24022,5.80481 5.16835,8.17569 5.16835,4.18477 z m 193.48293,-76.4289 c 7.61963,-34.7678 14.19956,-64.11418 14.62208,-65.21418 0.42252,-1.1 0.79674,23.48508 0.8316,54.6335 l 0.0634,56.63351 -6.48948,0.69496 c -6.54464,0.70087 -8.60013,1.84842 -6.70515,3.7434 0.70815,0.70815 5.98992,0.35017 16.86287,-1.14289 16.8237,-2.31022 20.8746,-3.37512 19.75154,-5.19229 -0.47463,-0.76796 -3.05198,-0.90753 -8.17907,-0.44292 l -7.48606,0.67836 0.62969,-8.30281 c 0.34633,-4.56655 2.00039,-33.93918 3.67569,-65.27251 1.67531,-31.33333 3.18613,-57.1098 3.35738,-57.28105 0.17125,-0.17125 2.73489,-0.55126 5.69698,-0.84446 8.19603,-0.81129 9.8856,-1.31101 9.8856,-2.92385 0,-0.99912 -1.04017,-1.48095 -3.19705,-1.48095 -5.70756,0 -26.28251,2.18483 -27.02031,2.86925 -0.39454,0.366 -6.66694,27.59291 -13.93867,60.50423 -7.63911,34.57414 -13.4955,59.0551 -13.87073,57.98265 -0.35718,-1.02087 -6.42816,-28.63113 -13.49106,-61.35613 -7.06291,-32.725 -13.20089,-59.98421 -13.63997,-60.57602 -0.55785,-0.75191 -3.89238,-0.41614 -11.07026,1.1147 -15.77999,3.36542 -18.77195,4.3427 -18.77195,6.13153 0,1.64239 1.04002,1.62167 11.08567,-0.22088 l 3.58567,-0.65768 0.66433,40.76806 c 0.36538,22.42243 0.66433,51.72788 0.66433,65.12323 l 0,24.35516 -2.75,-0.6161 c -1.5125,-0.33886 -4.325,-1.01992 -6.25,-1.51347 -4.9803,-1.27691 -7,-1.12328 -7,0.53245 0,0.79254 0.3375,1.64608 0.75,1.89674 1.54342,0.9379 28.5386,6.66228 31.41815,6.66228 5.23253,0 2.59772,-2.39762 -4.56317,-4.15238 -3.70869,-0.90881 -6.94767,-1.85698 -7.19773,-2.10703 -0.25005,-0.25006 -0.67276,-26.73149 -0.93934,-58.84762 -0.26659,-32.11613 -0.26934,-57.94297 -0.006,-57.39297 0.26322,0.55 7.50471,30.91648 16.09219,67.48107 8.58748,36.5646 15.8153,66.80744 16.06183,67.20633 1.89278,3.06258 4.13207,-5.3642 16.86711,-63.47322 z m 189.55691,33.2655 c 2.41445,-1.23176 3.96016,-2.72797 3.96016,-3.83334 0,-3.0383 -1.14079,-3.20566 -4.21551,-0.61846 -3.59399,3.02415 -9.66352,3.36826 -12.09136,0.68552 -2.98202,-3.29509 -4.70929,-9.13383 -5.34296,-18.06095 -0.46459,-6.54525 -0.30465,-9.06255 0.61179,-9.62894 0.68246,-0.42178 7.15771,-1.27462 14.38944,-1.89519 l 13.1486,-1.12832 -0.1495,-4.60532 c -0.25989,-8.00569 -5.92144,-16.7729 -12.16114,-18.83219 -8.95288,-2.95471 -17.6694,2.70857 -22.22118,14.43751 -3.02461,7.79375 -3.37049,22.41723 -0.71033,30.03168 4.52239,12.94489 14.81745,18.53152 24.78199,13.448 z m -16.66445,-37.73693 c 0.27806,-0.95851 0.9814,-3.58728 1.56296,-5.84171 1.26716,-4.9121 5.03016,-10.77129 7.18417,-11.18612 3.18855,-0.61406 5.87775,3.07048 7.0171,9.61428 0.62326,3.57967 0.72369,6.67344 0.23118,7.12161 -0.47894,0.43582 -4.38759,1.07192 -8.68589,1.41355 -7.11877,0.56579 -7.77004,0.46586 -7.30952,-1.12161 z m -282.48968,32.12475 c 4.67866,-3.27707 8.35283,-15.94525 4.40405,-15.18479 -1.02242,0.1969 -1.98617,1.67849 -2.39632,3.68394 -0.93295,4.56159 -3.3782,6.94467 -5.6622,5.51824 -4.2432,-2.64999 -4.40249,-4.2616 -3.79404,-38.38489 0.31872,-17.875 0.86099,-35.28765 1.20503,-38.69477 l 0.62553,-6.19477 5.61612,-0.61349 c 6.87291,-0.75078 10.46825,-2.11819 9.5359,-3.62678 -0.47408,-0.76707 -3.04428,-0.90823 -8.13595,-0.44683 l -7.44295,0.67446 0.32956,-6.29891 c 0.29693,-5.67516 0.13151,-6.3242 -1.67044,-6.5543 -1.1,-0.14047 -3.125,0.32014 -4.5,1.02357 -2.1382,1.09387 -2.57236,2.14387 -3,7.25539 -0.45851,5.48048 -0.70746,5.99881 -3,6.24612 -6.95557,0.75035 -9,1.40188 -9,2.86817 0,1.25371 1.06839,1.48225 5.63159,1.20469 l 5.63159,-0.34255 -0.69406,32 c -0.45664,21.05342 -0.32964,34.49561 0.37123,39.29537 2.12546,14.55558 8.84854,21.54293 15.94536,16.57213 z m -21.52284,-2.35375 c 1.63395,-1.58968 -0.58571,-3.20655 -3.87485,-2.82256 l -3.27576,0.38243 0.52117,-9.53681 c 1.1965,-21.89437 -5.51642,-32.52726 -21.33736,-33.79722 -7.33268,-0.58859 -14.42668,1.53832 -16.89774,5.06626 -2.03795,2.90958 -1.89038,8.02937 0.28827,10.00102 2.52156,2.28199 9.18313,4.91872 10.83013,4.28671 2.00783,-0.77048 1.69813,-3.59358 -0.39422,-3.59358 -2.71576,0 -6.22251,-2.87536 -6.22251,-5.10216 0,-1.09381 1.10455,-3.09329 2.45455,-4.44329 2.00118,-2.00119 3.45389,-2.45455 7.86514,-2.45455 8.69063,0 12.84094,4.43376 14.1796,15.14798 l 0.7054,5.64591 -12.85234,0.3858 c -10.78457,0.32374 -13.51627,0.73568 -16.97901,2.56046 -4.40779,2.3228 -5.37334,3.79749 -5.37334,8.20678 0,4.45074 3.24985,7.57904 9.77573,9.41011 7.25772,2.03641 12.46903,2.079 18.81534,0.15378 2.69991,-0.81904 4.96895,-1.49404 5.0423,-1.5 0.0734,-0.006 0.3846,0.94991 0.69167,2.12414 0.5282,2.01983 0.95239,2.09676 7.86663,1.42662 4.01958,-0.38959 7.69662,-1.08611 8.1712,-1.54783 z m -36.16503,-4.68668 c -2.80807,-1.3839 -3.25694,-2.08643 -3,-4.69531 0.21673,-2.20047 1.27849,-3.72363 3.75519,-5.387 3.01901,-2.0276 4.46445,-2.28299 11.5,-2.03192 l 8.04697,0.28716 0.31621,3.84809 c 0.39856,4.85017 -1.51728,7.08741 -7.32062,8.5487 -5.9646,1.50191 -9.39216,1.35506 -13.29775,-0.56972 z m 281.21076,-2.57707 c 1.43632,-3.9875 6.3877,-18.05 11.00305,-31.25 7.24956,-20.73389 8.68834,-24.04496 10.57242,-24.33036 2.11152,-0.31985 6.01593,2.26668 6.01593,3.98535 0,0.46475 -1.125,0.84501 -2.5,0.84501 -1.375,0 -2.5,0.45 -2.5,1 0,0.55 0.87344,1 1.94098,1 3.26238,0 3.42039,2.00404 0.42035,5.33126 -2.83411,3.1432 -2.82752,3.14153 0.81785,-0.20675 l 3.67498,-3.3755 0.75173,7.3755 c 0.56046,5.49882 0.93532,6.73937 1.47324,4.87549 0.39683,-1.375 0.76637,-4.4125 0.82119,-6.75 0.10447,-4.45418 1.01495,-5.26195 3.09968,-2.75 0.68469,0.825 1.71823,1.5 2.29676,1.5 0.57853,0 0.0693,-1.04588 -1.13159,-2.32419 -2.44284,-2.60027 -1.98623,-3.67581 1.56051,-3.67581 1.34026,0 2.12056,-0.43977 1.77432,-1 -0.33992,-0.55 -1.71648,-1 -3.05902,-1 -3.20155,0 -3.08388,-0.71299 0.80902,-4.90195 l 3.25,-3.49717 -4,3.39073 -4,3.39073 -0.70051,-6.29271 c -1.02459,-9.20385 -1.3972,-9.41879 -2.20667,-1.2729 -0.60831,6.12162 -0.95635,7.12646 -2.13076,6.15179 -0.77202,-0.64073 -1.30431,-2.13326 -1.18287,-3.31674 0.18908,-1.84259 -0.35394,-2.19064 -3.77919,-2.42222 -6.96333,-0.47078 -16,1.09631 -16,2.77465 0,1.00662 1.22636,1.59729 3.75,1.80615 2.0625,0.17071 3.75774,0.62071 3.7672,1 0.0489,1.96123 -15.57941,45.0152 -16.11905,44.40582 -0.34881,-0.3939 -2.75436,-10.16618 -5.34565,-21.71618 -2.5913,-11.55 -4.94947,-22.0125 -5.24039,-23.25 -0.44272,-1.88327 -0.1134,-2.25 2.02046,-2.25 1.40217,0 2.85174,-0.48921 3.22128,-1.08713 1.54915,-2.50657 -1.4786,-2.90904 -12.61829,-1.67731 -8.9363,0.98809 -11.43556,1.59227 -11.43556,2.76444 0,1.03995 1.25422,1.5919 4.08942,1.79965 l 4.08941,0.29965 7.80827,27.70035 c 4.29455,15.23519 8.21297,29.16285 8.70759,30.95035 1.42414,5.14662 3.37054,3.89369 6.21391,-4 z m 45.90597,4.06648 c 3.00698,-1.58415 0.26614,-3.78497 -3.8765,-3.11272 l -3.43807,0.55792 0,-14.77432 0,-14.77432 -9.25,0.69668 c -5.0875,0.38317 -9.63829,1.08352 -10.11287,1.55634 -1.72427,1.71789 0.61735,3.21974 4.45018,2.85422 4.56139,-0.435 4.49179,-0.6238 5.50356,14.92972 l 0.66677,10.25 -2.69456,0 c -3.43467,0 -6.81442,1.78431 -5.96943,3.15152 0.78386,1.26833 21.94891,0.12532 24.72092,-1.33504 z m 75.84713,-1.41375 c 6.66874,-3.41434 9.10365,-11.97068 4.5883,-16.12341 -1.2375,-1.13811 -6.81387,-4.34626 -12.39193,-7.1292 -10.97727,-5.47665 -14.35807,-8.67012 -14.35807,-13.56247 0,-6.82741 6.76804,-10.80429 14.73589,-8.65877 6.25552,1.68444 8.26411,4.89415 8.26411,13.20598 0,5.19116 0.33862,6.86514 1.38871,6.86514 0.78531,0 1.63181,-1.41213 1.94821,-3.25 1.05907,-6.15189 1.90605,-25.54785 1.16778,-26.7424 -0.5108,-0.82649 -1.61318,-0.23969 -3.56568,1.89802 -1.55445,1.70191 -3.63915,3.13958 -4.63265,3.19482 -0.9935,0.0552 -4.51358,0.21739 -7.8224,0.36031 -13.4963,0.58299 -22.48401,10.39796 -19.53846,21.33688 1.65368,6.14131 7.08768,10.25721 18.91383,14.326 8.11984,2.79364 10.32109,4.48938 9.95104,7.66581 -0.43264,3.71369 -4.10521,5.41595 -10.44786,4.84266 -6.38632,-0.57725 -11.36252,-3.02922 -11.36252,-5.59876 0,-2.89183 1.68634,-3.347 3.96353,-1.06981 2.73092,2.73092 4.03647,2.56538 4.03647,-0.5118 0,-1.91 -0.78694,-2.87916 -3.1418,-3.8693 -1.72798,-0.72657 -4.00696,-1.09478 -5.0644,-0.81826 -2.83194,0.74057 -5.12631,4.77487 -4.38816,7.71589 1.7256,6.87533 18.78538,10.51559 27.75606,5.92267 z M 442.58452,377.68866 c 21.55055,-6.48576 16.25864,-27.01688 -7.32432,-28.41626 -10.13949,-0.60167 -17.5243,1.54493 -22.89667,6.65554 -3.15891,3.005 -4.01755,4.55079 -4.01461,7.2274 0.004,4.05806 2.88467,9.13039 6.54714,11.53014 6.25112,4.09589 19.34036,5.51559 27.68846,3.00318 z m -16.8564,-4.21177 c -3.55584,-1.75421 -5.38294,-5.06062 -5.38294,-9.74126 0,-6.4183 5.83216,-10.90622 14.1729,-10.90622 6.05226,0 9.43434,2.14877 10.72194,6.81208 2.9663,10.74307 -8.828,19.10612 -19.5119,13.8354 z m 12.49875,-44.3538 0.11831,-4.43709 2.98957,2.86419 c 1.64426,1.5753 3.21749,2.63627 3.49606,2.3577 0.27856,-0.27857 -0.61674,-1.56171 -1.98957,-2.85141 -3.15492,-2.96389 -3.1539,-3.9963 0.004,-3.9963 1.375,0 2.5,-0.45 2.5,-1 0,-0.55 -1.125,-1 -2.5,-1 -3.15784,0 -3.15886,-1.03241 -0.004,-3.9963 1.37283,-1.2897 2.26813,-2.57284 1.98957,-2.85141 -0.27857,-0.27857 -1.8518,0.7824 -3.49606,2.3577 l -2.98951,2.86419 -0.11831,-4.43709 c -0.0651,-2.4404 -0.4328,-5.78709 -0.81717,-7.43709 -0.56999,-2.44682 -0.84513,-1.64671 -1.49213,4.33912 l -0.79327,7.33912 -3.58882,-3.33912 -3.58882,-3.33912 2.69926,3.68328 c 3.3141,4.52226 3.32629,4.81672 0.19926,4.81672 -1.375,0 -2.5,0.45 -2.5,1 0,0.55 1.125,1 2.5,1 3.12703,0 3.11484,0.29446 -0.19926,4.81672 l -2.69926,3.68328 3.58882,-3.33912 3.58882,-3.33913 0.79327,7.33913 c 0.647,5.98583 0.92214,6.78594 1.49213,4.33912 0.38437,-1.65 0.75209,-4.99669 0.81717,-7.43709 z M 218.2455,318.31018 c 0.0548,-2.3375 0.3947,-4.25 0.75529,-4.25 0.36058,0 2.27308,1.19739 4.25,2.66087 l 3.59439,2.66088 -3.25,-3.45848 c -3.89274,-4.14245 -4.01265,-4.86327 -0.80902,-4.86327 1.34254,0 2.7191,-0.45 3.05902,-1 0.34624,-0.56023 -0.43406,-1 -1.77432,-1 -3.54674,0 -4.00335,-1.07554 -1.56051,-3.67581 1.2009,-1.27831 1.71012,-2.32419 1.13159,-2.32419 -0.57853,0 -1.61207,0.675 -2.29676,1.5 -2.08473,2.51195 -2.99521,1.70418 -3.09968,-2.75 -0.0548,-2.3375 -0.42436,-5.375 -0.82119,-6.75 -0.53792,-1.86388 -0.91278,-0.62333 -1.47324,4.87549 l -0.75173,7.3755 -3.67498,-3.3755 c -3.64537,-3.34828 -3.65196,-3.34995 -0.81785,-0.20675 3.00004,3.32722 2.84203,5.33126 -0.42035,5.33126 -1.06754,0 -1.94098,0.45 -1.94098,1 0,0.55 1.125,1 2.5,1 3.04986,0 3.07665,0.35322 0.3295,4.34563 l -2.17049,3.15437 3.09832,-2.86794 3.09832,-2.86795 0.75099,7.36795 c 0.56003,5.49446 0.93444,6.73225 1.47249,4.86794 0.39683,-1.375 0.76637,-4.4125 0.82119,-6.75 z m 366.09968,-0.15979 c 0,-5.86414 1.81708,-10.08752 4.34783,-10.10552 1.18369,-0.008 2.82717,-0.45153 3.65217,-0.98469 1.11575,-0.72105 0.53938,-0.9733 -2.25,-0.98469 -2.0625,-0.008 -3.75,-0.33139 -3.75,-0.7177 0,-0.38632 1.4625,-2.29788 3.25,-4.24791 l 3.25,-3.54551 -3.29733,2.98034 c -3.91999,3.54314 -5.16281,2.54274 -5.18736,-4.17551 -0.008,-2.30504 -0.46531,-4.4691 -1.01531,-4.80902 -0.5995,-0.37051 -1.00223,0.90747 -1.00558,3.19098 -0.003,2.09496 -0.47422,5.49652 -1.047,7.55902 -0.96261,3.46619 -1.32168,3.75116 -4.74442,3.76531 -2.75901,0.0114 -3.32061,0.26243 -2.203,0.98469 0.825,0.53316 2.49135,0.97627 3.703,0.98469 2.50313,0.0174 4.28174,4.71084 4.29142,11.32433 0.003,2.28351 0.40608,3.56149 1.00558,3.19098 0.55,-0.33992 1,-2.32433 1,-4.40979 z m -6.43709,-5.34021 2.93709,-3.25 -3.25,2.93709 c -3.02946,2.73778 -3.70965,3.56291 -2.93709,3.56291 0.1721,0 1.6346,-1.4625 3.25,-3.25 z m 14.43709,2.93709 c 0,-0.1721 -1.4625,-1.6346 -3.25,-3.25 l -3.25,-2.93709 2.93709,3.25 c 2.73778,3.02945 3.56291,3.70965 3.56291,2.93709 z m -12,-11.99092 c 0,-0.16711 -1.6875,-1.85461 -3.75,-3.75 l -3.75,-3.44617 3.44617,3.75 c 3.20761,3.49042 4.05383,4.20979 4.05383,3.44617 z"
         id="path3355"
         inkscape:connector-curvature="0" />
      <path
         style="fill-opacity:1"
         d="m 95.345184,360.56018 0,-113.5 267.999996,0 268,0 0,113.5 0,113.5 -268,0 -267.999996,0 0,-113.5 z M 172.78411,445.159 c 1.00724,-1.62975 -10.82941,-28.55034 -12.7127,-28.91303 -2.36318,-0.4551 -2.22948,2.33655 0.41689,8.70441 1.17871,2.8363 1.8636,5.43641 1.52198,5.77803 -0.98361,0.98362 -10.29426,1.64166 -13.13608,0.92841 -3.58672,-0.90021 -9.97363,-6.90888 -12.88977,-12.12643 -6.44759,-11.53598 -8.99983,-25.45961 -8.97638,-48.97021 0.0354,-35.47706 7.02841,-60.43701 20.7448,-74.04354 6.48793,-6.43596 10.90769,-8.45646 18.49819,-8.45646 4.86497,0 12.49769,3.50599 11.76867,5.40578 -0.27025,0.70428 -1.07066,4.72801 -1.77867,8.94164 -0.99867,5.94343 -1.0192,7.92923 -0.0916,8.85686 0.79244,0.79244 1.53101,0.86043 2.18985,0.20159 1.21944,-1.21944 7.86534,-36.39436 7.2184,-38.20496 -0.95127,-2.66231 -3.63205,-0.6557 -4.41458,3.30438 -1.87543,9.49078 -1.34639,9.03707 -5.94632,5.0997 -11.54579,-9.88276 -27.13851,-8.47811 -39.14276,3.52615 -13.88504,13.88503 -21.69708,41.56169 -21.69708,76.86886 0,25.32165 3.545,43.46616 11.06289,56.62366 7.62921,13.35233 21.30048,20.24114 33.75722,17.0099 5.12318,-1.32893 5.34364,-1.30215 6.12248,0.74393 2.72998,7.17196 4.11425,9.62251 5.43558,9.62251 0.82061,0 1.74264,-0.40553 2.04897,-0.90118 z m 179.44705,-15.34882 c 0.46006,-1.2375 6.86143,-29.7 14.22525,-63.25 l 13.38877,-61 0.74573,42 c 0.41015,23.1 0.63515,47.39877 0.5,53.99727 l -0.24573,11.99728 -5.93745,0.74018 c -6.55556,0.81723 -8.67002,2.0578 -6.76108,3.96674 1.89187,1.89187 36.55572,-3.09966 36.98413,-5.32564 0.4517,-2.34703 -1.46236,-2.72978 -8.69448,-1.7386 -3.52488,0.48309 -6.50158,0.76234 -6.61488,0.62056 -0.11331,-0.14179 1.29159,-27.25779 3.12198,-60.25779 1.83039,-33 3.34459,-62.32411 3.36488,-65.16468 l 0.0369,-5.16468 7.35983,-0.68967 c 8.77687,-0.82246 10.85512,-1.7395 8.64017,-3.81254 -1.286,-1.2036 -3.55933,-1.20622 -15.93451,-0.0183 -7.93897,0.76207 -14.59622,1.54729 -14.79387,1.74494 -0.19766,0.19766 -6.28993,27.22623 -13.53839,60.06349 -8.99232,40.73737 -13.40381,58.9635 -13.88664,57.37279 -0.3892,-1.28222 -6.43035,-28.88132 -13.42479,-61.33132 -6.99443,-32.45 -13.04687,-59.37368 -13.44987,-59.83039 -1.22632,-1.38981 -30.97193,5.48508 -30.97193,7.15832 0,0.42464 0.475,1.24707 1.05557,1.82763 1.00194,1.00195 2.76623,0.82581 11.59184,-1.1573 l 3.14741,-0.70722 0.39562,64.85448 c 0.21759,35.66996 0.37625,64.90248 0.35259,64.96114 -0.0237,0.0587 -3.19303,-0.67174 -7.04303,-1.62311 -5.92633,-1.46446 -7.2235,-1.52026 -8.45714,-0.3638 -2.65644,2.49022 -0.57348,3.26116 21.29862,7.88298 11.92494,2.51987 13.65852,2.52069 13.65852,0.006 0,-0.89111 -2.58411,-1.94768 -7.36499,-3.01132 l -7.36498,-1.63856 -0.49506,-57.67965 c -0.27228,-31.72381 -0.43964,-57.76056 -0.37191,-57.85943 0.0677,-0.0989 7.04865,29.37612 15.51315,65.5 8.46449,36.12387 15.78693,66.46727 16.27207,67.42977 1.20774,2.39608 2.69584,2.19486 3.6977,-0.5 z m 203.50845,-28.61933 c 3.87778,-2.18468 5.43351,-4.70273 3.8709,-6.26534 -0.91963,-0.91963 -2.06184,-0.58535 -5.03128,1.47247 -10.07423,6.98145 -16.21564,-0.20974 -16.22847,-19.00248 l -0.006,-8.16468 7.75,-0.66142 c 18.79255,-1.60383 19.7215,-1.80758 20.08881,-4.40619 0.89312,-6.31851 -5.00765,-17.58762 -10.76943,-20.56715 -3.98498,-2.06071 -10.93435,-1.94151 -14.24881,0.2444 -8.45622,5.57695 -13.31561,17.98243 -12.63339,32.25164 0.36814,7.69999 0.8861,9.78731 3.86893,15.59151 3.72957,7.25723 6.79958,10.14482 12.06669,11.34967 4.01541,0.91853 7.33368,0.37613 11.27163,-1.84243 z m -15.92006,-40.88067 c 0.38333,-2.0625 1.7001,-5.775 2.92616,-8.25 1.86308,-3.76093 2.75623,-4.55176 5.43815,-4.81513 2.8461,-0.27951 3.37586,0.0844 4.68513,3.21788 2.01837,4.83063 1.95848,12.1982 -0.1056,12.99026 -0.86998,0.33385 -4.29506,0.60699 -7.61129,0.60699 l -6.0295,0 0.69695,-3.75 z m -282.78022,35.25167 c 4.37196,-3.06224 7.07074,-16.00167 3.33748,-16.00167 -0.92877,0 -1.77694,1.5603 -2.30804,4.24587 -1.06849,5.40301 -3.35791,6.77893 -6.73122,4.0454 l -2.49237,-2.01968 0.056,-24.13579 c 0.0308,-13.27469 0.41374,-31.18219 0.85101,-39.79445 l 0.79503,-15.65865 6.7261,-0.67548 c 7.7268,-0.77597 9.62101,-1.63385 8.73066,-3.95406 -0.46951,-1.22352 -1.47413,-1.5209 -3.89571,-1.15316 -1.79468,0.27254 -5.06306,0.73223 -7.26306,1.02154 l -4,0.52602 0.34547,-6.10575 c 0.40506,-7.15872 -0.52237,-8.19222 -5.73925,-6.39569 -3.45102,1.18842 -3.64439,1.50595 -4.49307,7.37823 -0.96091,6.64882 -0.53003,6.31238 -9.61315,7.50593 -0.825,0.10841 -1.5,1.09095 -1.5,2.18342 0,1.77309 0.5639,1.94957 5.25337,1.64414 l 5.25338,-0.34216 -0.64358,33.84216 c -0.67837,35.671 -0.22029,41.72958 3.74554,49.53853 1.03247,2.03301 2.66789,4.15682 3.63426,4.71959 2.5838,1.5047 7.50389,1.29986 9.95118,-0.41429 z m -27.44415,-1.05748 c 4.72753,-0.55467 5.75,-1.00979 5.75,-2.55941 0,-1.51088 -0.74393,-1.88525 -3.75,-1.88716 l -3.75,-0.002 0,-13.27839 c 0,-12.2783 -0.19241,-13.65197 -2.55464,-18.23847 -3.84635,-7.46805 -9.01662,-10.65497 -18.247,-11.24734 -12.07727,-0.77546 -18.69836,2.87706 -18.69836,10.31455 0,3.96213 4.28345,8.04138 9.46455,9.01336 6.31568,1.18483 7.48758,-2.05578 1.47508,-4.07896 -3.5677,-1.20052 -4.51742,-3.04213 -3.55216,-6.88803 1.09717,-4.37147 9.87556,-6.05904 15.74077,-3.02602 3.85386,1.9929 6.82092,8.40248 6.8498,14.79722 l 0.022,4.86355 -4.30836,-0.64608 c -6.16153,-0.92398 -21.28852,1.00053 -25.04182,3.18591 -7.47244,4.35085 -6.94993,12.45711 1.05266,16.3311 5.93639,2.87375 16.98395,3.61179 23.54752,1.5731 4.46638,-1.38729 4.75,-1.36679 4.75,0.34341 0,1.98932 1.65524,3.0056 4,2.45593 0.825,-0.1934 4.0875,-0.65522 7.25,-1.02627 z m -28.56393,-5.47627 c -3.92635,-1.15693 -5.68607,-2.83907 -5.68607,-5.43538 0,-4.64398 6.85248,-7.76907 16.08279,-7.3346 l 6.41721,0.30206 0.30592,4.77766 c 0.29314,4.57802 0.16778,4.83367 -3,6.11799 -4.60524,1.86712 -10.78419,2.55515 -14.11985,1.57227 z m 287.38089,-26.92682 c 11.44269,-32.57972 12.52304,-34.53209 16.91107,-30.56098 2.48542,2.24927 1.75009,3.51988 -2.03705,3.51988 -1.61754,0 -2.94098,0.45 -2.94098,1 0,0.55 1.0125,1.00689 2.25,1.01531 4.25164,0.0289 4.99131,1.41026 2.16888,4.05032 -4.6111,4.31317 -4.91705,6.59263 -0.33015,2.4597 l 4.41127,-3.97467 1.02034,7.97467 c 0.89414,6.98832 1.11059,7.55723 1.75,4.59967 0.40131,-1.85625 0.72966,-4.63195 0.72966,-6.16821 0,-5.97069 0.95739,-6.4043 5.13448,-2.32548 2.12603,2.07602 3.86552,3.32153 3.86552,2.7678 0,-0.55372 -1.57353,-2.5319 -3.49673,-4.39594 -3.67301,-3.56002 -3.32389,-4.95675 1.24673,-4.98786 1.2375,-0.008 2.25,-0.46531 2.25,-1.01531 0,-0.55 -1.35,-1 -3,-1 -3.97664,0 -3.79034,-1.58225 0.75,-6.37006 3.54007,-3.73302 3.57708,-3.83596 0.66119,-1.83885 -1.69885,1.16355 -3.68413,2.83286 -4.41173,3.70956 -1.7929,2.16032 -2.94143,0.27997 -3.05443,-5.00065 -0.0471,-2.2 -0.43004,-4.88066 -0.85102,-5.95701 -0.5806,-1.48448 -0.92581,-0.78677 -1.42971,2.88957 -0.36537,2.66562 -0.6643,6.18888 -0.6643,7.82946 0,2.54887 -0.22004,2.80025 -1.51233,1.72775 -1.17433,-0.97461 -1.25085,-1.5702 -0.34238,-2.66483 2.59553,-3.12742 -2.23679,-4.1336 -13.89529,-2.89327 -6.18329,0.65783 -7.25,1.05064 -7.25,2.66982 0,1.5565 0.73985,1.89851 4.10699,1.89851 2.85226,0 3.97332,0.38189 3.66948,1.25 -0.24063,0.6875 -3.7559,10.79537 -7.81172,22.46194 -4.05581,11.66657 -7.61327,20.97287 -7.90547,20.68067 -0.29219,-0.29219 -2.83632,-10.51256 -5.65362,-22.71194 l -5.12236,-22.18067 2.85835,-0.89466 c 1.88367,-0.58959 2.85835,-1.57135 2.85835,-2.87913 0,-1.87249 -0.46549,-1.94706 -8.25,-1.32154 -14.78738,1.18822 -16.75,1.62279 -16.75,3.70887 0,1.55078 0.75626,1.88864 4.25,1.89871 l 4.25,0.0122 8.40663,30.23775 c 4.62365,16.63076 8.60311,30.60017 8.84324,31.04312 0.24013,0.44295 1.15289,0.66742 2.02836,0.49882 1.1116,-0.21407 4.81846,-9.49365 12.28873,-30.76309 z m 27.00321,29.45671 c 10.545,-0.72447 12.55554,-1.42486 11.55734,-4.02611 -0.5273,-1.37414 -1.47786,-1.62098 -4.61955,-1.19959 l -3.95562,0.53056 -0.27617,-14.65134 -0.27617,-14.65133 -6.05985,0.33741 c -9.0442,0.50358 -12.88202,1.50298 -13.25744,3.45235 -0.27118,1.40814 0.4619,1.71024 4.15013,1.71024 l 4.47948,0 0.55261,4.75 c 0.30393,2.6125 0.83456,8.2375 1.17916,12.5 l 0.62655,7.75 -4.1167,0 c -2.85215,0 -4.30542,0.49177 -4.73104,1.60092 -0.70087,1.82645 1.44326,3.54888 3.6771,2.9539 0.825,-0.21974 5.80658,-0.69539 11.07017,-1.05701 z m 82.302,-1.44391 c 4.72232,-1.09563 10.20346,-6.18203 11.01057,-10.21762 1.12752,-5.63757 -1.34465,-8.18524 -14.08224,-14.51235 -9.14338,-4.54177 -12.1417,-6.54492 -13.61916,-9.09886 -2.42705,-4.19538 -1.5994,-9.57743 1.81705,-11.81597 3.12048,-2.04462 10.42626,-2.01655 14.43308,0.0555 4.10124,2.12083 5.39217,5.67388 4.61488,12.7016 -0.65304,5.9044 0.35936,7.98691 2.86988,5.90337 0.87523,-0.72638 1.56044,-4.93603 2.00798,-12.33609 0.37365,-6.1784 0.93025,-12.69119 1.23689,-14.47288 0.81321,-4.72514 -1.96408,-5.47069 -5.47764,-1.47045 -2.50185,2.8484 -3.23237,3.0825 -10.7941,3.45909 -9.28967,0.46263 -12.96892,2.13715 -17.78334,8.09362 -2.65581,3.28582 -3.10602,4.66281 -3.10602,9.5 0,4.39531 0.52821,6.361 2.36807,8.81251 2.53116,3.37265 9.11291,7.31354 15.63193,9.35977 10.52404,3.30336 13.77246,6.70025 9.75,10.1956 -2.6831,2.3315 -6.70936,2.91893 -11.95266,1.74388 -5.00572,-1.1218 -8.29734,-3.34716 -8.29734,-5.60957 0,-1.83797 3.64658,-1.7084 4.36163,0.15499 0.66081,1.72204 3.21059,2.00118 4.16555,0.45602 1.00914,-1.63282 -2.13739,-5.64137 -4.99028,-6.3574 -2.57692,-0.64677 -6.38613,0.72617 -7.77159,2.80108 -1.46282,2.19078 -0.71575,6.29823 1.5291,8.40716 4.73655,4.44976 13.73945,6.18162 22.07776,4.24704 z M 445.96221,376.65802 c 12.46884,-5.80581 13.88565,-18.76094 2.6722,-24.4343 -12.11506,-6.12951 -29.99857,-3.9753 -37.91553,4.56724 -4.19274,4.52404 -2.93171,12.70383 2.63074,17.06465 7.14758,5.60351 23.56669,7.01441 32.61259,2.80241 z m -20.71915,-3.88147 c -6.89509,-4.63403 -5.98919,-15.10896 1.58018,-18.27165 6.61438,-2.76366 16.29389,-1.08735 17.90076,3.10008 1.08495,2.82735 0.67164,8.45695 -0.83477,11.37001 -3.03422,5.86755 -12.65392,7.8288 -18.64617,3.80156 z m 13.03183,-39.88458 c 0.1327,-6.9253 0.9043,-7.39977 5.20477,-3.20048 2.12603,2.07602 3.86552,3.32153 3.86552,2.7678 0,-0.55372 -1.55749,-2.51636 -3.46109,-4.3614 -3.89708,-3.7772 -3.76694,-5.03771 0.52011,-5.03771 1.61754,0 2.94098,-0.45 2.94098,-1 0,-0.55 -1.275,-1 -2.83333,-1 -4.50137,0 -4.49774,-1.08696 0.019,-5.68919 2.32691,-2.37095 3.77533,-4.31081 3.2187,-4.31081 -0.55662,0 -2.53716,1.57353 -4.4012,3.49673 -3.87176,3.99464 -4.92184,3.37251 -5.05814,-2.99673 -0.0471,-2.2 -0.4477,-4.9 -0.89027,-6 -0.59785,-1.48597 -0.98112,-0.45792 -1.49125,4 -0.37762,3.3 -0.77467,6.66001 -0.88233,7.46668 -0.13364,1.00137 -1.54176,0.25063 -4.43846,-2.36636 -5.07142,-4.58173 -5.73,-3.43418 -0.78163,1.36196 3.89708,3.77721 3.76694,5.03772 -0.52011,5.03772 -1.61754,0 -2.94098,0.45 -2.94098,1 0,0.55 1.32344,1 2.94098,1 4.28705,0 4.41719,1.26051 0.52011,5.03771 -4.94837,4.79615 -4.28979,5.9437 0.78163,1.36197 2.8967,-2.61699 4.30482,-3.36773 4.43846,-2.36636 0.10766,0.80667 0.50471,4.16668 0.88233,7.46668 0.51013,4.45792 0.8934,5.48597 1.49125,4 0.44257,-1.1 0.8363,-3.6507 0.87495,-5.66821 z M 218.29021,320.56018 c 0.12834,-5.99736 1.21221,-7.02817 4.1206,-3.91888 4.20814,4.49881 6.69811,5.03427 2.68437,0.57726 -4.53432,-5.03508 -4.67112,-6.15838 -0.75,-6.15838 1.65,0 3,-0.45 3,-1 0,-0.55 -1.0125,-1.00689 -2.25,-1.01531 -4.57062,-0.0311 -4.91974,-1.42784 -1.24673,-4.98786 1.9232,-1.86404 3.49673,-3.84222 3.49673,-4.39595 0,-0.55372 -1.73949,0.69179 -3.86552,2.76781 -4.17709,4.07882 -5.13448,3.6452 -5.13448,-2.32548 0,-1.53626 -0.32835,-4.31196 -0.72966,-6.16821 -0.63941,-2.95756 -0.85586,-2.38865 -1.75,4.59967 l -1.02034,7.97467 -4.45646,-3.97467 c -4.11689,-3.67181 -4.29189,-3.73931 -2.29668,-0.88586 1.18788,1.69885 2.87709,3.68413 3.75379,4.41173 1.90059,1.57735 0.39518,2.95934 -3.25065,2.98415 -1.2375,0.008 -2.25,0.46531 -2.25,1.01531 0,0.55 1.32344,1 2.94098,1 4.28705,0 4.41719,1.26051 0.52011,5.03771 -4.9537,4.80132 -4.28732,5.94235 0.78891,1.35083 l 4.25,-3.84419 0.88555,7.47782 c 0.9298,7.85143 2.38665,7.55421 2.55948,-0.52217 z m 366.15465,-0.25 c 0.0548,-2.6125 0.3924,-5.7894 0.75018,-7.05977 0.64356,-2.28515 0.69845,-2.2693 5.15032,1.48699 l 4.49982,3.79676 -3.75,-4.65529 c -2.0625,-2.5604 -3.75,-4.91705 -3.75,-5.23699 0,-0.31993 1.0125,-0.58859 2.25,-0.59701 1.2375,-0.008 2.925,-0.45153 3.75,-0.98469 1.14137,-0.73761 0.73709,-0.97304 -1.69098,-0.98469 -1.75504,-0.008 -3.4289,-0.40026 -3.71967,-0.87074 -0.29078,-0.47049 1.13827,-2.83299 3.17566,-5.25 3.60256,-4.27381 2.42894,-3.92327 -2.8755,0.85885 l -2.61048,2.35344 -0.62851,-3.80343 c -0.34568,-2.09189 -0.63346,-5.26593 -0.63951,-7.05343 -0.0203,-5.98767 -1.74466,-3.33043 -2.44393,3.76604 l -0.69134,7.01603 -4.66399,-3.76603 -4.66399,-3.76604 3.71726,4.59219 c 2.0445,2.5257 3.42126,4.8882 3.05946,5.25 -0.3618,0.36179 -2.04531,0.68827 -3.74115,0.72549 -2.61764,0.0575 -2.78126,0.19588 -1.08333,0.91647 1.1,0.46684 2.85895,1.12468 3.90878,1.46187 1.80747,0.58053 1.77828,0.75747 -0.55001,3.33353 -4.87909,5.39831 -5.26909,6.64127 -0.86326,2.75125 l 4.49552,-3.96921 0.63617,2.96921 c 0.34989,1.63306 0.68941,4.8817 0.75449,7.2192 0.16227,5.82911 2.09431,5.39357 2.21799,-0.5 z"
         id="path3353"
         inkscape:connector-curvature="0" />
    </g>
  </g>
</svg>
